<mxfile host="app.diagrams.net" modified="2023-11-19T19:04:54.561Z" agent="Mozilla/5.0 (Windows NT 10.0; Win64; x64; rv:109.0) Gecko/20100101 Firefox/119.0" etag="cjKaVanq35jXfeNdKgIn" version="22.1.3" type="device" pages="2">
  <diagram id="S3Bwy63FPXCQf8nDQeJb" name="General">
    <mxGraphModel dx="2074" dy="1134" grid="1" gridSize="10" guides="1" tooltips="1" connect="1" arrows="1" fold="1" page="1" pageScale="1" pageWidth="827" pageHeight="1169" math="0" shadow="0">
      <root>
        <mxCell id="0" />
        <mxCell id="1" parent="0" />
        <mxCell id="zqeCqyucuBoj6Lh_Elu6-16" value="" style="rounded=1;whiteSpace=wrap;html=1;fillColor=none;" parent="1" vertex="1">
          <mxGeometry x="40" y="120" width="1400" height="480" as="geometry" />
        </mxCell>
        <mxCell id="aNR7hin9dGT8M9iWGUgv-1" value="&lt;font style=&quot;font-size: 40px;&quot;&gt;Bcrypt.vhd&lt;/font&gt;" style="rounded=1;whiteSpace=wrap;html=1;fillColor=none;fontColor=#333333;strokeColor=none;fontStyle=1;fontSize=27;" parent="1" vertex="1">
          <mxGeometry x="80" y="110" width="1320" height="80" as="geometry" />
        </mxCell>
        <mxCell id="aNR7hin9dGT8M9iWGUgv-2" value="&lt;font style=&quot;font-size: 16px;&quot;&gt;&lt;span&gt;bram.vhd&lt;/span&gt;&lt;/font&gt;" style="rounded=1;whiteSpace=wrap;html=1;fontStyle=0;fillColor=#fff2cc;strokeColor=#d6b656;" parent="1" vertex="1">
          <mxGeometry x="80" y="240" width="120" height="80" as="geometry" />
        </mxCell>
        <mxCell id="zqeCqyucuBoj6Lh_Elu6-7" value="" style="edgeStyle=orthogonalEdgeStyle;rounded=0;orthogonalLoop=1;jettySize=auto;html=1;" parent="1" source="aNR7hin9dGT8M9iWGUgv-3" target="aNR7hin9dGT8M9iWGUgv-5" edge="1">
          <mxGeometry relative="1" as="geometry" />
        </mxCell>
        <mxCell id="aNR7hin9dGT8M9iWGUgv-3" value="&lt;font style=&quot;font-size: 16px;&quot;&gt;&lt;span&gt;nxmBitShiftReg.vhd&lt;/span&gt;&lt;/font&gt;" style="rounded=1;whiteSpace=wrap;html=1;fontStyle=0;fillColor=#ffe6cc;strokeColor=#d79b00;" parent="1" vertex="1">
          <mxGeometry x="440" y="240" width="160" height="80" as="geometry" />
        </mxCell>
        <mxCell id="zqeCqyucuBoj6Lh_Elu6-8" value="" style="edgeStyle=orthogonalEdgeStyle;rounded=0;orthogonalLoop=1;jettySize=auto;html=1;" parent="1" source="aNR7hin9dGT8M9iWGUgv-5" target="aNR7hin9dGT8M9iWGUgv-6" edge="1">
          <mxGeometry relative="1" as="geometry" />
        </mxCell>
        <mxCell id="aNR7hin9dGT8M9iWGUgv-5" value="&lt;span&gt;&lt;font style=&quot;font-size: 16px;&quot;&gt;&lt;span&gt;nBitReg.vhd&lt;/span&gt;&lt;/font&gt;&lt;/span&gt;" style="rounded=1;whiteSpace=wrap;html=1;fontStyle=0;fillColor=#f8cecc;strokeColor=#b85450;" parent="1" vertex="1">
          <mxGeometry x="440" y="360" width="160" height="80" as="geometry" />
        </mxCell>
        <mxCell id="aNR7hin9dGT8M9iWGUgv-6" value="&lt;span&gt;&lt;font style=&quot;font-size: 16px;&quot;&gt;&lt;span&gt;dff.vhd&lt;/span&gt;&lt;/font&gt;&lt;/span&gt;" style="rounded=1;whiteSpace=wrap;html=1;fontStyle=0;fillColor=#d5e8d4;strokeColor=#82b366;" parent="1" vertex="1">
          <mxGeometry x="440" y="480" width="160" height="80" as="geometry" />
        </mxCell>
        <mxCell id="aNR7hin9dGT8M9iWGUgv-7" value="&lt;font style=&quot;font-size: 16px;&quot;&gt;&lt;span&gt;nBitCounter.vhd&lt;/span&gt;&lt;/font&gt;" style="rounded=1;whiteSpace=wrap;html=1;fontStyle=0;fillColor=#dae8fc;strokeColor=#6c8ebf;" parent="1" vertex="1">
          <mxGeometry x="240" y="240" width="160" height="80" as="geometry" />
        </mxCell>
        <mxCell id="zqeCqyucuBoj6Lh_Elu6-9" value="" style="edgeStyle=orthogonalEdgeStyle;rounded=0;orthogonalLoop=1;jettySize=auto;html=1;" parent="1" source="aNR7hin9dGT8M9iWGUgv-8" target="aNR7hin9dGT8M9iWGUgv-9" edge="1">
          <mxGeometry relative="1" as="geometry" />
        </mxCell>
        <mxCell id="aNR7hin9dGT8M9iWGUgv-8" value="&lt;span&gt;&lt;font style=&quot;font-size: 16px;&quot;&gt;&lt;span&gt;nBitReg.vhd&lt;/span&gt;&lt;/font&gt;&lt;/span&gt;" style="rounded=1;whiteSpace=wrap;html=1;fontStyle=0;fillColor=#f8cecc;strokeColor=#b85450;" parent="1" vertex="1">
          <mxGeometry x="640" y="240" width="160" height="80" as="geometry" />
        </mxCell>
        <mxCell id="aNR7hin9dGT8M9iWGUgv-9" value="&lt;span&gt;&lt;font style=&quot;font-size: 16px;&quot;&gt;&lt;span&gt;dff.vhd&lt;/span&gt;&lt;/font&gt;&lt;/span&gt;" style="rounded=1;whiteSpace=wrap;html=1;fontStyle=0;fillColor=#d5e8d4;strokeColor=#82b366;" parent="1" vertex="1">
          <mxGeometry x="640" y="360" width="160" height="80" as="geometry" />
        </mxCell>
        <mxCell id="zqeCqyucuBoj6Lh_Elu6-1" value="&lt;span&gt;&lt;font style=&quot;font-size: 16px;&quot;&gt;&lt;span&gt;dff.vhd&lt;/span&gt;&lt;/font&gt;&lt;/span&gt;" style="rounded=1;whiteSpace=wrap;html=1;fontStyle=0;fillColor=#d5e8d4;strokeColor=#82b366;" parent="1" vertex="1">
          <mxGeometry x="840" y="240" width="160" height="80" as="geometry" />
        </mxCell>
        <mxCell id="zqeCqyucuBoj6Lh_Elu6-13" style="edgeStyle=orthogonalEdgeStyle;rounded=0;orthogonalLoop=1;jettySize=auto;html=1;entryX=0.5;entryY=0;entryDx=0;entryDy=0;" parent="1" source="zqeCqyucuBoj6Lh_Elu6-2" target="zqeCqyucuBoj6Lh_Elu6-3" edge="1">
          <mxGeometry relative="1" as="geometry" />
        </mxCell>
        <mxCell id="zqeCqyucuBoj6Lh_Elu6-2" value="&lt;b&gt;&lt;font style=&quot;font-size: 16px;&quot;&gt;&lt;span&gt;blowfish_encryption.vhd&lt;/span&gt;&lt;/font&gt;&lt;/b&gt;" style="rounded=1;whiteSpace=wrap;html=1;fontStyle=0;fillColor=#e1d5e7;strokeColor=#9673a6;" parent="1" vertex="1">
          <mxGeometry x="1040" y="240" width="360" height="80" as="geometry" />
        </mxCell>
        <mxCell id="zqeCqyucuBoj6Lh_Elu6-11" value="" style="edgeStyle=orthogonalEdgeStyle;rounded=0;orthogonalLoop=1;jettySize=auto;html=1;" parent="1" source="zqeCqyucuBoj6Lh_Elu6-3" target="zqeCqyucuBoj6Lh_Elu6-4" edge="1">
          <mxGeometry relative="1" as="geometry" />
        </mxCell>
        <mxCell id="zqeCqyucuBoj6Lh_Elu6-3" value="&lt;span&gt;&lt;font style=&quot;font-size: 16px;&quot;&gt;&lt;span&gt;nBitReg.vhd&lt;/span&gt;&lt;/font&gt;&lt;/span&gt;" style="rounded=1;whiteSpace=wrap;html=1;fontStyle=0;fillColor=#f8cecc;strokeColor=#b85450;" parent="1" vertex="1">
          <mxGeometry x="1040" y="360" width="160" height="80" as="geometry" />
        </mxCell>
        <mxCell id="zqeCqyucuBoj6Lh_Elu6-4" value="&lt;span&gt;&lt;font style=&quot;font-size: 16px;&quot;&gt;&lt;span&gt;dff.vhd&lt;/span&gt;&lt;/font&gt;&lt;/span&gt;" style="rounded=1;whiteSpace=wrap;html=1;fontStyle=0;fillColor=#d5e8d4;strokeColor=#82b366;" parent="1" vertex="1">
          <mxGeometry x="1040" y="480" width="160" height="80" as="geometry" />
        </mxCell>
        <mxCell id="zqeCqyucuBoj6Lh_Elu6-5" value="&lt;font style=&quot;font-size: 16px;&quot;&gt;&lt;span&gt;nBitCounter.vhd&lt;/span&gt;&lt;/font&gt;" style="rounded=1;whiteSpace=wrap;html=1;fontStyle=0;fillColor=#dae8fc;strokeColor=#6c8ebf;" parent="1" vertex="1">
          <mxGeometry x="1240" y="360" width="160" height="80" as="geometry" />
        </mxCell>
        <mxCell id="zqeCqyucuBoj6Lh_Elu6-15" style="edgeStyle=orthogonalEdgeStyle;rounded=0;orthogonalLoop=1;jettySize=auto;html=1;entryX=0.5;entryY=0;entryDx=0;entryDy=0;" parent="1" target="zqeCqyucuBoj6Lh_Elu6-5" edge="1">
          <mxGeometry relative="1" as="geometry">
            <mxPoint x="1220" y="340" as="sourcePoint" />
            <mxPoint x="1310" y="350" as="targetPoint" />
            <Array as="points">
              <mxPoint x="1320" y="340" />
            </Array>
          </mxGeometry>
        </mxCell>
      </root>
    </mxGraphModel>
  </diagram>
  <diagram name="bcrypt core" id="YmXWAisofS-MouCbzUtv">
    <mxGraphModel dx="1728" dy="945" grid="1" gridSize="10" guides="1" tooltips="1" connect="1" arrows="1" fold="1" page="1" pageScale="1" pageWidth="827" pageHeight="1169" math="0" shadow="0">
      <root>
        <mxCell id="0" />
        <mxCell id="1" parent="0" />
        <mxCell id="fLC40trGX75_qP32-5L6-43" value="" style="rounded=1;whiteSpace=wrap;html=1;fillColor=#e1d5e7;strokeColor=#9673a6;" vertex="1" parent="1">
          <mxGeometry x="180" y="200" width="1360" height="600" as="geometry" />
        </mxCell>
        <mxCell id="7EGL9XoVboEZDOE69qso-16" value="" style="rounded=1;whiteSpace=wrap;html=1;fillColor=#d5e8d4;strokeColor=#82b366;" vertex="1" parent="1">
          <mxGeometry x="220" y="270" width="400" height="280" as="geometry" />
        </mxCell>
        <mxCell id="7EGL9XoVboEZDOE69qso-3" value="&lt;div style=&quot;font-size: 16px;&quot;&gt;Sbox 0 &amp;amp; Sbox 1&lt;/div&gt;&lt;div style=&quot;font-size: 16px;&quot;&gt;&lt;br&gt;&lt;/div&gt;&lt;div&gt;DATA_WIDTH : 32 bits&lt;br&gt;&lt;/div&gt;&lt;div&gt;ADD_WIDTH : 9 bits&lt;br&gt;&lt;/div&gt;" style="rounded=1;whiteSpace=wrap;html=1;fillColor=#f5f5f5;fontColor=#333333;strokeColor=#666666;" vertex="1" parent="1">
          <mxGeometry x="244" y="320" width="160" height="90" as="geometry" />
        </mxCell>
        <mxCell id="7EGL9XoVboEZDOE69qso-11" value="&lt;div style=&quot;font-size: 16px;&quot;&gt;Sbox 2 &amp;amp; Sbox 3&lt;/div&gt;&lt;div style=&quot;font-size: 16px;&quot;&gt;&lt;br&gt;&lt;/div&gt;&lt;div&gt;DATA_WIDTH : 32 bits&lt;br&gt;&lt;/div&gt;&lt;div&gt;ADD_WIDTH : 9 bits&lt;br&gt;&lt;/div&gt;" style="rounded=1;whiteSpace=wrap;html=1;fillColor=#f5f5f5;fontColor=#333333;strokeColor=#666666;" vertex="1" parent="1">
          <mxGeometry x="434" y="320" width="160" height="90" as="geometry" />
        </mxCell>
        <mxCell id="7EGL9XoVboEZDOE69qso-13" value="&lt;div style=&quot;font-size: 16px;&quot;&gt;Subkeys&lt;/div&gt;&lt;div style=&quot;font-size: 16px;&quot;&gt;&lt;br&gt;&lt;/div&gt;&lt;div&gt;DATA_WIDTH : 32 bits&lt;br&gt;&lt;/div&gt;&lt;div&gt;ADD_WIDTH : 9 bits&lt;br&gt;&lt;/div&gt;" style="rounded=1;whiteSpace=wrap;html=1;fillColor=#f5f5f5;fontColor=#333333;strokeColor=#666666;" vertex="1" parent="1">
          <mxGeometry x="244" y="440" width="160" height="90" as="geometry" />
        </mxCell>
        <mxCell id="7EGL9XoVboEZDOE69qso-17" value="BLOCK RAM" style="rounded=0;whiteSpace=wrap;html=1;fillColor=none;strokeColor=none;fontSize=16;fontStyle=1" vertex="1" parent="1">
          <mxGeometry x="360" y="270" width="120" height="60" as="geometry" />
        </mxCell>
        <mxCell id="7EGL9XoVboEZDOE69qso-18" value="bram.vhd" style="rounded=0;whiteSpace=wrap;html=1;fillColor=none;strokeColor=none;fontStyle=2" vertex="1" parent="1">
          <mxGeometry x="530" y="510" width="90" height="40" as="geometry" />
        </mxCell>
        <mxCell id="fLC40trGX75_qP32-5L6-1" value="" style="rounded=1;whiteSpace=wrap;html=1;fillColor=#dae8fc;strokeColor=#6c8ebf;" vertex="1" parent="1">
          <mxGeometry x="220" y="570" width="400" height="190" as="geometry" />
        </mxCell>
        <mxCell id="fLC40trGX75_qP32-5L6-3" value="&lt;div style=&quot;font-size: 16px;&quot;&gt;Active Sbox&lt;/div&gt;&lt;div style=&quot;font-size: 16px;&quot;&gt;&lt;br&gt;&lt;/div&gt;&lt;div&gt;N : 4 registers&lt;br&gt;&lt;/div&gt;&lt;div&gt;M : 1 bit&lt;br&gt;&lt;/div&gt;" style="rounded=1;whiteSpace=wrap;html=1;fillColor=#f5f5f5;fontColor=#333333;strokeColor=#666666;" vertex="1" parent="1">
          <mxGeometry x="244" y="630" width="160" height="90" as="geometry" />
        </mxCell>
        <mxCell id="fLC40trGX75_qP32-5L6-5" value="SHIFT REGISTER (with Rotation)" style="rounded=0;whiteSpace=wrap;html=1;fillColor=none;strokeColor=none;fontSize=16;fontStyle=1" vertex="1" parent="1">
          <mxGeometry x="220" y="570" width="400" height="60" as="geometry" />
        </mxCell>
        <mxCell id="fLC40trGX75_qP32-5L6-6" value="nxmBitShiftReg.vhd" style="rounded=0;whiteSpace=wrap;html=1;fillColor=none;strokeColor=none;fontStyle=2" vertex="1" parent="1">
          <mxGeometry x="490" y="720" width="130" height="40" as="geometry" />
        </mxCell>
        <mxCell id="fLC40trGX75_qP32-5L6-7" value="" style="rounded=1;whiteSpace=wrap;html=1;fillColor=#ffe6cc;strokeColor=#d79b00;" vertex="1" parent="1">
          <mxGeometry x="660" y="270" width="400" height="280" as="geometry" />
        </mxCell>
        <mxCell id="fLC40trGX75_qP32-5L6-8" value="&lt;div style=&quot;font-size: 16px;&quot;&gt;Cost counter&lt;/div&gt;&lt;div style=&quot;font-size: 16px;&quot;&gt;&lt;br&gt;&lt;/div&gt;&lt;div&gt;ASYNC : False&lt;br&gt;&lt;/div&gt;&lt;div&gt;BIT_WIDTH : 2 bits&lt;br&gt;&lt;/div&gt;" style="rounded=1;whiteSpace=wrap;html=1;fillColor=#f5f5f5;fontColor=#333333;strokeColor=#666666;" vertex="1" parent="1">
          <mxGeometry x="684" y="320" width="160" height="90" as="geometry" />
        </mxCell>
        <mxCell id="fLC40trGX75_qP32-5L6-11" value="COUNTERS" style="rounded=0;whiteSpace=wrap;html=1;fillColor=none;strokeColor=none;fontSize=16;fontStyle=1" vertex="1" parent="1">
          <mxGeometry x="660" y="270" width="400" height="60" as="geometry" />
        </mxCell>
        <mxCell id="fLC40trGX75_qP32-5L6-12" value="nBitCounter.vhd" style="rounded=0;whiteSpace=wrap;html=1;fillColor=none;strokeColor=none;fontStyle=2" vertex="1" parent="1">
          <mxGeometry x="940" y="510" width="120" height="40" as="geometry" />
        </mxCell>
        <mxCell id="fLC40trGX75_qP32-5L6-13" value="&lt;div style=&quot;font-size: 16px;&quot;&gt;Loop counter(init &amp;amp; ECB)&lt;br&gt;&lt;/div&gt;&lt;div&gt;ASYNC : False&lt;br&gt;&lt;/div&gt;&lt;div&gt;BIT_WIDTH : 9 bits&lt;br&gt;&lt;/div&gt;" style="rounded=1;whiteSpace=wrap;html=1;fillColor=#f5f5f5;fontColor=#333333;strokeColor=#666666;" vertex="1" parent="1">
          <mxGeometry x="870" y="320" width="160" height="90" as="geometry" />
        </mxCell>
        <mxCell id="fLC40trGX75_qP32-5L6-15" value="&lt;div style=&quot;font-size: 16px;&quot;&gt;Loop end counter(+1)&lt;/div&gt;&lt;div style=&quot;font-size: 16px;&quot;&gt;&lt;br&gt;&lt;/div&gt;&lt;div&gt;ASYNC : False&lt;br&gt;&lt;/div&gt;&lt;div&gt;BIT_WIDTH : 10 bits&lt;br&gt;&lt;/div&gt;" style="rounded=1;whiteSpace=wrap;html=1;fillColor=#f5f5f5;fontColor=#333333;strokeColor=#666666;" vertex="1" parent="1">
          <mxGeometry x="684" y="430" width="160" height="90" as="geometry" />
        </mxCell>
        <mxCell id="fLC40trGX75_qP32-5L6-30" value="" style="rounded=1;whiteSpace=wrap;html=1;fillColor=#fff2cc;strokeColor=#d6b656;" vertex="1" parent="1">
          <mxGeometry x="660" y="570" width="400" height="190" as="geometry" />
        </mxCell>
        <mxCell id="fLC40trGX75_qP32-5L6-31" value="&lt;div style=&quot;font-size: 16px;&quot;&gt;First expand key flag&lt;br&gt;&lt;/div&gt;&lt;div style=&quot;font-size: 16px;&quot;&gt;&lt;br&gt;&lt;/div&gt;&lt;div&gt;Async : False&lt;br&gt;&lt;/div&gt;&lt;div&gt;&lt;br&gt;&lt;/div&gt;" style="rounded=1;whiteSpace=wrap;html=1;fillColor=#f5f5f5;fontColor=#333333;strokeColor=#666666;" vertex="1" parent="1">
          <mxGeometry x="684" y="630" width="160" height="90" as="geometry" />
        </mxCell>
        <mxCell id="fLC40trGX75_qP32-5L6-32" value="D FLIP FLOP" style="rounded=0;whiteSpace=wrap;html=1;fillColor=none;strokeColor=none;fontSize=16;fontStyle=1" vertex="1" parent="1">
          <mxGeometry x="660" y="570" width="400" height="60" as="geometry" />
        </mxCell>
        <mxCell id="fLC40trGX75_qP32-5L6-33" value="dff.vhd" style="rounded=0;whiteSpace=wrap;html=1;fillColor=none;strokeColor=none;fontStyle=2" vertex="1" parent="1">
          <mxGeometry x="980" y="720" width="80" height="40" as="geometry" />
        </mxCell>
        <mxCell id="fLC40trGX75_qP32-5L6-34" value="&lt;div style=&quot;font-size: 16px;&quot;&gt;Use Salt Dword Low Flag&lt;br&gt;&lt;/div&gt;&lt;div&gt;Async : False&lt;br&gt;&lt;/div&gt;&lt;div&gt;&lt;br&gt;&lt;/div&gt;" style="rounded=1;whiteSpace=wrap;html=1;fillColor=#f5f5f5;fontColor=#333333;strokeColor=#666666;" vertex="1" parent="1">
          <mxGeometry x="870" y="630" width="160" height="90" as="geometry" />
        </mxCell>
        <mxCell id="fLC40trGX75_qP32-5L6-35" value="" style="rounded=1;whiteSpace=wrap;html=1;fillColor=#f8cecc;strokeColor=#b85450;" vertex="1" parent="1">
          <mxGeometry x="1100" y="270" width="400" height="280" as="geometry" />
        </mxCell>
        <mxCell id="fLC40trGX75_qP32-5L6-36" value="&lt;div style=&quot;font-size: 16px;&quot;&gt;Loop Counter Delay&lt;br&gt;&lt;/div&gt;&lt;div style=&quot;font-size: 16px;&quot;&gt;&lt;br&gt;&lt;/div&gt;&lt;div&gt;ASYNC : False&lt;br&gt;&lt;/div&gt;&lt;div&gt;BIT_WIDTH : 9 bits&lt;br&gt;&lt;/div&gt;" style="rounded=1;whiteSpace=wrap;html=1;fillColor=#f5f5f5;fontColor=#333333;strokeColor=#666666;" vertex="1" parent="1">
          <mxGeometry x="1124" y="320" width="160" height="90" as="geometry" />
        </mxCell>
        <mxCell id="fLC40trGX75_qP32-5L6-37" value="REGISTER" style="rounded=0;whiteSpace=wrap;html=1;fillColor=none;strokeColor=none;fontSize=16;fontStyle=1" vertex="1" parent="1">
          <mxGeometry x="1100" y="270" width="400" height="60" as="geometry" />
        </mxCell>
        <mxCell id="fLC40trGX75_qP32-5L6-38" value="nBitReg.vhd" style="rounded=0;whiteSpace=wrap;html=1;fillColor=none;strokeColor=none;fontStyle=2" vertex="1" parent="1">
          <mxGeometry x="1400" y="510" width="100" height="40" as="geometry" />
        </mxCell>
        <mxCell id="fLC40trGX75_qP32-5L6-39" value="&lt;div style=&quot;font-size: 16px;&quot;&gt;Blowfish Out Delay&lt;/div&gt;&lt;div style=&quot;font-size: 16px;&quot;&gt;&lt;br&gt;&lt;/div&gt;&lt;div&gt;ASYNC : False&lt;br&gt;&lt;/div&gt;&lt;div&gt;BIT_WIDTH : 64 bits&lt;br&gt;&lt;/div&gt;" style="rounded=1;whiteSpace=wrap;html=1;fillColor=#f5f5f5;fontColor=#333333;strokeColor=#666666;" vertex="1" parent="1">
          <mxGeometry x="1310" y="320" width="160" height="90" as="geometry" />
        </mxCell>
        <mxCell id="fLC40trGX75_qP32-5L6-41" value="&lt;div style=&quot;font-size: 16px;&quot;&gt;Blowfish Out Delay&lt;/div&gt;&lt;div style=&quot;font-size: 16px;&quot;&gt;Twice&lt;br&gt;&lt;/div&gt;&lt;div&gt;ASYNC : False&lt;br&gt;&lt;/div&gt;&lt;div&gt;BIT_WIDTH : 64 bits&lt;br&gt;&lt;/div&gt;" style="rounded=1;whiteSpace=wrap;html=1;fillColor=#f5f5f5;fontColor=#333333;strokeColor=#666666;" vertex="1" parent="1">
          <mxGeometry x="1124" y="430" width="160" height="90" as="geometry" />
        </mxCell>
        <mxCell id="fLC40trGX75_qP32-5L6-44" value="BCRYPT CORE" style="rounded=1;whiteSpace=wrap;html=1;fillColor=none;strokeColor=none;fontStyle=1;fontSize=22;" vertex="1" parent="1">
          <mxGeometry x="180" y="200" width="1360" height="60" as="geometry" />
        </mxCell>
      </root>
    </mxGraphModel>
  </diagram>
</mxfile>
